<svg width="54" height="50" viewBox="0 0 54 50" fill="none" xmlns="http://www.w3.org/2000/svg">
<path d="M33.266 1.86936L45.5366 23.074C46.2057 24.2306 46.2057 25.6554 45.5366 26.812L33.266 48.0166C32.5968 49.1732 31.36 49.8856 30.0215 49.8856H37.2123C38.5508 49.8856 39.7876 49.1732 40.4568 48.0166L52.7274 26.812C53.3965 25.6554 53.3965 24.2306 52.7274 23.074L40.4568 1.86936C39.7876 0.712787 38.5506 0.000366211 37.2123 0.000366211H30.0215C31.36 0.000366211 32.5968 0.712787 33.266 1.86936Z" fill="#39435A"/>
<path d="M33.266 1.86936L33.8127 2.8142C34.742 2.82776 35.7073 2.90392 36.6924 3.0484C38.6527 3.33612 40.4599 3.86054 42.0038 4.54317L40.4565 1.86936C39.7876 0.712787 38.5508 0.000366211 37.2123 0.000366211H30.0215C31.36 0.000366211 32.5968 0.712787 33.266 1.86936Z" fill="#2C374C"/>
<path d="M19.4236 1.86936L31.6942 23.074C32.3634 24.2306 32.3634 25.6554 31.6942 26.812L19.4236 48.0166C18.7545 49.1732 17.5176 49.8856 16.1791 49.8856H23.3699C24.7084 49.8856 25.9453 49.1732 26.6144 48.0166L38.885 26.812C39.5542 25.6554 39.5542 24.2306 38.885 23.074L26.6144 1.86936C25.9451 0.712787 24.7083 0.000366211 23.3697 0.000366211H16.1791C17.5175 0.000366211 18.7543 0.712787 19.4236 1.86936Z" fill="#39435A"/>
<path d="M19.9632 48.0162L7.69268 26.8116C7.0235 25.655 7.0235 24.2302 7.69268 23.0736L19.9632 1.86899C20.6324 0.712421 21.8692 0 23.2077 0H16.017C14.6784 0 13.4416 0.712421 12.7724 1.86899L0.501886 23.0736C-0.167295 24.2302 -0.167295 25.655 0.501886 26.8116L12.7724 48.0162C13.4416 49.1728 14.6784 49.8852 16.017 49.8852H23.2077C21.8692 49.8852 20.6324 49.1728 19.9632 48.0162Z" fill="#435F94"/>
<path d="M27.0524 48.0162L14.7819 26.8116C14.1127 25.655 14.1127 24.2302 14.7819 23.0736L27.0524 1.869C27.7216 0.712788 28.9584 0.000366211 30.297 0.000366211H23.1062C21.7676 0.000366211 20.5308 0.712787 19.8617 1.86936L7.59112 23.074C6.92194 24.2306 6.92194 25.6554 7.59112 26.812L19.8617 48.0166C20.5308 49.1732 21.7676 49.8856 23.1062 49.8856H30.297C28.9584 49.8852 27.7216 49.1728 27.0524 48.0162Z" fill="#377DFF"/>
<path d="M34.2788 48.0162L22.0083 26.8116C21.3391 25.655 21.3391 24.2302 22.0083 23.0736L34.2788 1.869C34.948 0.712788 36.1848 0.000366211 37.5234 0.000366211H30.3326C28.994 0.000366211 27.7572 0.712787 27.088 1.86936L14.8175 23.074C14.1483 24.2306 14.1483 25.6554 14.8175 26.812L27.088 48.0166C27.7572 49.1732 28.994 49.8856 30.3326 49.8856H37.5234C36.1848 49.8852 34.948 49.1728 34.2788 48.0162Z" fill="#37DBFF"/>
</svg>
